<mxfile host="drawio-plugin" modified="2023-03-29T11:43:15.409Z" agent="5.0 (Windows NT 6.2; Win64; x64) AppleWebKit/537.36 (KHTML, like Gecko) Chrome/104.0.5112.102 Safari/537.36" etag="uFv6VqA5j3nep15CSS8r" version="20.5.3" type="embed"><diagram id="C5RBs43oDa-KdzZeNtuy" name="Page-1"><mxGraphModel dx="881" dy="821" grid="1" gridSize="10" guides="1" tooltips="1" connect="1" arrows="1" fold="1" page="1" pageScale="1" pageWidth="1169" pageHeight="827" math="0" shadow="0"><root><mxCell id="WIyWlLk6GJQsqaUBKTNV-0"/><mxCell id="WIyWlLk6GJQsqaUBKTNV-1" parent="WIyWlLk6GJQsqaUBKTNV-0"/><mxCell id="RPdG7LprBocpzkOron-m-37" style="edgeStyle=orthogonalEdgeStyle;rounded=0;orthogonalLoop=1;jettySize=auto;html=1;exitX=0.5;exitY=1;exitDx=0;exitDy=0;entryX=0.5;entryY=0;entryDx=0;entryDy=0;fontColor=default;" parent="WIyWlLk6GJQsqaUBKTNV-1" source="RPdG7LprBocpzkOron-m-27" target="RPdG7LprBocpzkOron-m-33" edge="1"><mxGeometry relative="1" as="geometry"/></mxCell><mxCell id="RPdG7LprBocpzkOron-m-64" style="edgeStyle=orthogonalEdgeStyle;rounded=0;orthogonalLoop=1;jettySize=auto;html=1;exitX=1;exitY=0.5;exitDx=0;exitDy=0;fontColor=default;entryX=0.5;entryY=0;entryDx=0;entryDy=0;" parent="WIyWlLk6GJQsqaUBKTNV-1" source="RPdG7LprBocpzkOron-m-27" target="RPdG7LprBocpzkOron-m-66" edge="1"><mxGeometry relative="1" as="geometry"><mxPoint x="310" y="1000" as="targetPoint"/><Array as="points"><mxPoint x="290" y="180"/><mxPoint x="290" y="760"/><mxPoint x="160" y="760"/></Array></mxGeometry></mxCell><mxCell id="RPdG7LprBocpzkOron-m-27" value="Прочесть каждую &lt;br&gt;строку в файле" style="shape=hexagon;perimeter=hexagonPerimeter2;whiteSpace=wrap;html=1;fixedSize=1;fontColor=default;" parent="WIyWlLk6GJQsqaUBKTNV-1" vertex="1"><mxGeometry x="80" y="160" width="160" height="40" as="geometry"/></mxCell><mxCell id="RPdG7LprBocpzkOron-m-31" style="edgeStyle=orthogonalEdgeStyle;rounded=0;orthogonalLoop=1;jettySize=auto;html=1;exitX=0.5;exitY=1;exitDx=0;exitDy=0;entryX=0.5;entryY=0;entryDx=0;entryDy=0;fontColor=default;" parent="WIyWlLk6GJQsqaUBKTNV-1" source="RPdG7LprBocpzkOron-m-29" target="RPdG7LprBocpzkOron-m-30" edge="1"><mxGeometry relative="1" as="geometry"/></mxCell><mxCell id="RPdG7LprBocpzkOron-m-29" value="Начало" style="ellipse;whiteSpace=wrap;html=1;fontColor=default;" parent="WIyWlLk6GJQsqaUBKTNV-1" vertex="1"><mxGeometry x="120" y="40" width="80" height="40" as="geometry"/></mxCell><mxCell id="RPdG7LprBocpzkOron-m-32" style="edgeStyle=orthogonalEdgeStyle;rounded=0;orthogonalLoop=1;jettySize=auto;html=1;exitX=0.5;exitY=1;exitDx=0;exitDy=0;entryX=0.5;entryY=0;entryDx=0;entryDy=0;fontColor=default;" parent="WIyWlLk6GJQsqaUBKTNV-1" source="RPdG7LprBocpzkOron-m-30" target="RPdG7LprBocpzkOron-m-27" edge="1"><mxGeometry relative="1" as="geometry"/></mxCell><mxCell id="RPdG7LprBocpzkOron-m-30" value="Открыть файл" style="rounded=1;whiteSpace=wrap;html=1;fontColor=default;" parent="WIyWlLk6GJQsqaUBKTNV-1" vertex="1"><mxGeometry x="120" y="100" width="80" height="40" as="geometry"/></mxCell><mxCell id="RPdG7LprBocpzkOron-m-90" style="edgeStyle=orthogonalEdgeStyle;rounded=0;orthogonalLoop=1;jettySize=auto;html=1;exitX=0.5;exitY=1;exitDx=0;exitDy=0;entryX=0.5;entryY=0;entryDx=0;entryDy=0;fontColor=default;" parent="WIyWlLk6GJQsqaUBKTNV-1" source="RPdG7LprBocpzkOron-m-33" target="RPdG7LprBocpzkOron-m-36" edge="1"><mxGeometry relative="1" as="geometry"/></mxCell><mxCell id="RPdG7LprBocpzkOron-m-33" value="Выделить имя &lt;br&gt;города, название &lt;br&gt;улицы и номер дома" style="rounded=1;whiteSpace=wrap;html=1;fontColor=default;" parent="WIyWlLk6GJQsqaUBKTNV-1" vertex="1"><mxGeometry x="80" y="220" width="160" height="60" as="geometry"/></mxCell><mxCell id="RPdG7LprBocpzkOron-m-42" style="edgeStyle=orthogonalEdgeStyle;rounded=0;orthogonalLoop=1;jettySize=auto;html=1;exitX=0.5;exitY=1;exitDx=0;exitDy=0;entryX=0.5;entryY=0;entryDx=0;entryDy=0;fontColor=default;" parent="WIyWlLk6GJQsqaUBKTNV-1" source="RPdG7LprBocpzkOron-m-36" target="RPdG7LprBocpzkOron-m-41" edge="1"><mxGeometry relative="1" as="geometry"/></mxCell><mxCell id="RPdG7LprBocpzkOron-m-36" value="Сформировать запрос к API" style="rounded=1;whiteSpace=wrap;html=1;fontColor=default;" parent="WIyWlLk6GJQsqaUBKTNV-1" vertex="1"><mxGeometry x="100" y="300" width="120" height="40" as="geometry"/></mxCell><mxCell id="RPdG7LprBocpzkOron-m-44" style="edgeStyle=orthogonalEdgeStyle;rounded=0;orthogonalLoop=1;jettySize=auto;html=1;exitX=0.5;exitY=1;exitDx=0;exitDy=0;entryX=0.5;entryY=0;entryDx=0;entryDy=0;fontColor=default;" parent="WIyWlLk6GJQsqaUBKTNV-1" source="RPdG7LprBocpzkOron-m-41" target="RPdG7LprBocpzkOron-m-43" edge="1"><mxGeometry relative="1" as="geometry"/></mxCell><mxCell id="RPdG7LprBocpzkOron-m-41" value="Получить ответ со списком локаций" style="rounded=1;whiteSpace=wrap;html=1;fontColor=default;" parent="WIyWlLk6GJQsqaUBKTNV-1" vertex="1"><mxGeometry x="100" y="360" width="120" height="40" as="geometry"/></mxCell><mxCell id="RPdG7LprBocpzkOron-m-46" style="edgeStyle=orthogonalEdgeStyle;rounded=0;orthogonalLoop=1;jettySize=auto;html=1;exitX=0.5;exitY=1;exitDx=0;exitDy=0;entryX=0.5;entryY=0;entryDx=0;entryDy=0;fontColor=default;" parent="WIyWlLk6GJQsqaUBKTNV-1" source="RPdG7LprBocpzkOron-m-43" target="RPdG7LprBocpzkOron-m-45" edge="1"><mxGeometry relative="1" as="geometry"/></mxCell><mxCell id="RPdG7LprBocpzkOron-m-43" value="Обработать каждую локацию из ответа" style="shape=hexagon;perimeter=hexagonPerimeter2;whiteSpace=wrap;html=1;fixedSize=1;fontColor=default;" parent="WIyWlLk6GJQsqaUBKTNV-1" vertex="1"><mxGeometry x="80" y="420" width="160" height="40" as="geometry"/></mxCell><mxCell id="RPdG7LprBocpzkOron-m-48" style="edgeStyle=orthogonalEdgeStyle;rounded=0;orthogonalLoop=1;jettySize=auto;html=1;exitX=0.5;exitY=1;exitDx=0;exitDy=0;entryX=0.5;entryY=0;entryDx=0;entryDy=0;fontColor=default;" parent="WIyWlLk6GJQsqaUBKTNV-1" source="RPdG7LprBocpzkOron-m-45" target="RPdG7LprBocpzkOron-m-47" edge="1"><mxGeometry relative="1" as="geometry"/></mxCell><mxCell id="RPdG7LprBocpzkOron-m-45" value="Найти высоту здания по локации" style="rounded=1;whiteSpace=wrap;html=1;fontColor=default;" parent="WIyWlLk6GJQsqaUBKTNV-1" vertex="1"><mxGeometry x="100" y="484.5" width="120" height="40" as="geometry"/></mxCell><mxCell id="RPdG7LprBocpzkOron-m-49" style="edgeStyle=orthogonalEdgeStyle;rounded=0;orthogonalLoop=1;jettySize=auto;html=1;exitX=0;exitY=0.5;exitDx=0;exitDy=0;entryX=0;entryY=0.5;entryDx=0;entryDy=0;fontColor=default;" parent="WIyWlLk6GJQsqaUBKTNV-1" source="RPdG7LprBocpzkOron-m-47" target="RPdG7LprBocpzkOron-m-43" edge="1"><mxGeometry relative="1" as="geometry"/></mxCell><mxCell id="RPdG7LprBocpzkOron-m-55" style="edgeStyle=orthogonalEdgeStyle;rounded=0;orthogonalLoop=1;jettySize=auto;html=1;exitX=0.5;exitY=1;exitDx=0;exitDy=0;entryX=0.5;entryY=0;entryDx=0;entryDy=0;fontColor=default;" parent="WIyWlLk6GJQsqaUBKTNV-1" source="RPdG7LprBocpzkOron-m-47" target="RPdG7LprBocpzkOron-m-54" edge="1"><mxGeometry relative="1" as="geometry"><Array as="points"><mxPoint x="160" y="630"/><mxPoint x="160" y="630"/></Array></mxGeometry></mxCell><mxCell id="RPdG7LprBocpzkOron-m-60" value="Да" style="edgeLabel;html=1;align=center;verticalAlign=middle;resizable=0;points=[];fontColor=default;" parent="RPdG7LprBocpzkOron-m-55" vertex="1" connectable="0"><mxGeometry x="0.3552" y="1" relative="1" as="geometry"><mxPoint y="-51" as="offset"/></mxGeometry></mxCell><mxCell id="RPdG7LprBocpzkOron-m-47" value="Высота &lt;br&gt;найдена?" style="rhombus;whiteSpace=wrap;html=1;fontColor=default;" parent="WIyWlLk6GJQsqaUBKTNV-1" vertex="1"><mxGeometry x="100" y="550" width="120" height="60" as="geometry"/></mxCell><mxCell id="RPdG7LprBocpzkOron-m-57" style="edgeStyle=orthogonalEdgeStyle;rounded=0;orthogonalLoop=1;jettySize=auto;html=1;exitX=0.5;exitY=1;exitDx=0;exitDy=0;entryX=0.5;entryY=0;entryDx=0;entryDy=0;fontColor=default;" parent="WIyWlLk6GJQsqaUBKTNV-1" source="RPdG7LprBocpzkOron-m-54" target="RPdG7LprBocpzkOron-m-56" edge="1"><mxGeometry relative="1" as="geometry"/></mxCell><mxCell id="RPdG7LprBocpzkOron-m-54" value="Сохранить &lt;br&gt;высоту здания" style="rounded=1;whiteSpace=wrap;html=1;fontColor=default;" parent="WIyWlLk6GJQsqaUBKTNV-1" vertex="1"><mxGeometry x="110" y="640" width="100" height="40" as="geometry"/></mxCell><mxCell id="RPdG7LprBocpzkOron-m-56" value="Сохранить широту и долготу координаты" style="rounded=1;whiteSpace=wrap;html=1;fontColor=default;" parent="WIyWlLk6GJQsqaUBKTNV-1" vertex="1"><mxGeometry x="80" y="700" width="160" height="40" as="geometry"/></mxCell><mxCell id="RPdG7LprBocpzkOron-m-63" style="edgeStyle=orthogonalEdgeStyle;rounded=0;orthogonalLoop=1;jettySize=auto;html=1;exitX=0;exitY=0.5;exitDx=0;exitDy=0;fontColor=default;entryX=0;entryY=0.5;entryDx=0;entryDy=0;" parent="WIyWlLk6GJQsqaUBKTNV-1" source="RPdG7LprBocpzkOron-m-56" target="RPdG7LprBocpzkOron-m-27" edge="1"><mxGeometry relative="1" as="geometry"><mxPoint x="20" y="420" as="targetPoint"/><Array as="points"><mxPoint x="30" y="720"/><mxPoint x="30" y="180"/></Array></mxGeometry></mxCell><mxCell id="RPdG7LprBocpzkOron-m-61" value="Да" style="text;html=1;align=center;verticalAlign=middle;resizable=0;points=[];autosize=1;strokeColor=none;fillColor=none;fontColor=default;" parent="WIyWlLk6GJQsqaUBKTNV-1" vertex="1"><mxGeometry x="160" y="600" width="40" height="30" as="geometry"/></mxCell><mxCell id="RPdG7LprBocpzkOron-m-62" value="Нет" style="text;html=1;align=center;verticalAlign=middle;resizable=0;points=[];autosize=1;strokeColor=none;fillColor=none;fontColor=default;" parent="WIyWlLk6GJQsqaUBKTNV-1" vertex="1"><mxGeometry x="70" y="550" width="40" height="30" as="geometry"/></mxCell><mxCell id="RPdG7LprBocpzkOron-m-72" style="edgeStyle=orthogonalEdgeStyle;rounded=0;orthogonalLoop=1;jettySize=auto;html=1;exitX=0.5;exitY=1;exitDx=0;exitDy=0;entryX=0.5;entryY=0;entryDx=0;entryDy=0;fontColor=default;" parent="WIyWlLk6GJQsqaUBKTNV-1" source="RPdG7LprBocpzkOron-m-65" target="RPdG7LprBocpzkOron-m-70" edge="1"><mxGeometry relative="1" as="geometry"/></mxCell><mxCell id="RPdG7LprBocpzkOron-m-75" style="edgeStyle=orthogonalEdgeStyle;rounded=0;orthogonalLoop=1;jettySize=auto;html=1;exitX=1;exitY=0.5;exitDx=0;exitDy=0;fontColor=default;entryX=1;entryY=0.5;entryDx=0;entryDy=0;" parent="WIyWlLk6GJQsqaUBKTNV-1" source="RPdG7LprBocpzkOron-m-65" target="RPdG7LprBocpzkOron-m-76" edge="1"><mxGeometry relative="1" as="geometry"><mxPoint x="559.94" y="390" as="targetPoint"/></mxGeometry></mxCell><mxCell id="RPdG7LprBocpzkOron-m-65" value="Обработать каждую координату" style="shape=hexagon;perimeter=hexagonPerimeter2;whiteSpace=wrap;html=1;fixedSize=1;fontColor=default;" parent="WIyWlLk6GJQsqaUBKTNV-1" vertex="1"><mxGeometry x="339.94000000000005" y="140" width="160" height="40" as="geometry"/></mxCell><mxCell id="RPdG7LprBocpzkOron-m-66" value="А" style="ellipse;whiteSpace=wrap;html=1;aspect=fixed;fontColor=default;" parent="WIyWlLk6GJQsqaUBKTNV-1" vertex="1"><mxGeometry x="140" y="780" width="40" height="40" as="geometry"/></mxCell><mxCell id="RPdG7LprBocpzkOron-m-69" style="edgeStyle=orthogonalEdgeStyle;rounded=0;orthogonalLoop=1;jettySize=auto;html=1;exitX=0.5;exitY=1;exitDx=0;exitDy=0;entryX=0.5;entryY=0;entryDx=0;entryDy=0;fontColor=default;" parent="WIyWlLk6GJQsqaUBKTNV-1" source="RPdG7LprBocpzkOron-m-68" target="RPdG7LprBocpzkOron-m-65" edge="1"><mxGeometry relative="1" as="geometry"/></mxCell><mxCell id="RPdG7LprBocpzkOron-m-68" value="А" style="ellipse;whiteSpace=wrap;html=1;aspect=fixed;fontColor=default;" parent="WIyWlLk6GJQsqaUBKTNV-1" vertex="1"><mxGeometry x="399.94000000000005" y="80" width="40" height="40" as="geometry"/></mxCell><mxCell id="RPdG7LprBocpzkOron-m-73" style="edgeStyle=orthogonalEdgeStyle;rounded=0;orthogonalLoop=1;jettySize=auto;html=1;exitX=0.5;exitY=1;exitDx=0;exitDy=0;entryX=0.5;entryY=0;entryDx=0;entryDy=0;fontColor=default;" parent="WIyWlLk6GJQsqaUBKTNV-1" source="RPdG7LprBocpzkOron-m-70" target="RPdG7LprBocpzkOron-m-71" edge="1"><mxGeometry relative="1" as="geometry"/></mxCell><mxCell id="RPdG7LprBocpzkOron-m-70" value="Заложить удвоенную высоту здания" style="rounded=1;whiteSpace=wrap;html=1;fontColor=default;" parent="WIyWlLk6GJQsqaUBKTNV-1" vertex="1"><mxGeometry x="339.94000000000005" y="200" width="160" height="40" as="geometry"/></mxCell><mxCell id="RPdG7LprBocpzkOron-m-74" style="edgeStyle=orthogonalEdgeStyle;rounded=0;orthogonalLoop=1;jettySize=auto;html=1;entryX=0;entryY=0.5;entryDx=0;entryDy=0;fontColor=default;exitX=0.5;exitY=1;exitDx=0;exitDy=0;" parent="WIyWlLk6GJQsqaUBKTNV-1" source="RPdG7LprBocpzkOron-m-79" target="RPdG7LprBocpzkOron-m-65" edge="1"><mxGeometry relative="1" as="geometry"><mxPoint x="289.94000000000005" y="410" as="sourcePoint"/><Array as="points"><mxPoint x="419.94000000000005" y="400"/><mxPoint x="319.94000000000005" y="400"/><mxPoint x="319.94000000000005" y="160"/></Array></mxGeometry></mxCell><mxCell id="RPdG7LprBocpzkOron-m-80" style="edgeStyle=orthogonalEdgeStyle;rounded=0;orthogonalLoop=1;jettySize=auto;html=1;exitX=0.5;exitY=1;exitDx=0;exitDy=0;entryX=0.5;entryY=0;entryDx=0;entryDy=0;fontColor=default;" parent="WIyWlLk6GJQsqaUBKTNV-1" source="RPdG7LprBocpzkOron-m-71" target="RPdG7LprBocpzkOron-m-79" edge="1"><mxGeometry relative="1" as="geometry"/></mxCell><mxCell id="RPdG7LprBocpzkOron-m-71" value="Умножить заложенную длинну согласно &lt;br&gt;этажности (3 метра)" style="rounded=1;whiteSpace=wrap;html=1;fontColor=default;" parent="WIyWlLk6GJQsqaUBKTNV-1" vertex="1"><mxGeometry x="339.94000000000005" y="260" width="160" height="60" as="geometry"/></mxCell><mxCell id="RPdG7LprBocpzkOron-m-78" style="edgeStyle=orthogonalEdgeStyle;rounded=0;orthogonalLoop=1;jettySize=auto;html=1;exitX=0.5;exitY=1;exitDx=0;exitDy=0;entryX=0.5;entryY=0;entryDx=0;entryDy=0;fontColor=default;" parent="WIyWlLk6GJQsqaUBKTNV-1" source="RPdG7LprBocpzkOron-m-76" target="RPdG7LprBocpzkOron-m-77" edge="1"><mxGeometry relative="1" as="geometry"/></mxCell><mxCell id="RPdG7LprBocpzkOron-m-76" value="Сформировать &lt;br&gt;пары координат" style="rounded=1;whiteSpace=wrap;html=1;fontColor=default;" parent="WIyWlLk6GJQsqaUBKTNV-1" vertex="1"><mxGeometry x="359.94000000000005" y="420" width="120" height="40" as="geometry"/></mxCell><mxCell id="RPdG7LprBocpzkOron-m-82" style="edgeStyle=orthogonalEdgeStyle;rounded=0;orthogonalLoop=1;jettySize=auto;html=1;exitX=0.5;exitY=1;exitDx=0;exitDy=0;entryX=0.5;entryY=0;entryDx=0;entryDy=0;fontColor=default;" parent="WIyWlLk6GJQsqaUBKTNV-1" source="RPdG7LprBocpzkOron-m-77" target="RPdG7LprBocpzkOron-m-81" edge="1"><mxGeometry relative="1" as="geometry"/></mxCell><mxCell id="RPdG7LprBocpzkOron-m-88" style="edgeStyle=orthogonalEdgeStyle;rounded=0;orthogonalLoop=1;jettySize=auto;html=1;exitX=1;exitY=0.5;exitDx=0;exitDy=0;entryX=0.5;entryY=0;entryDx=0;entryDy=0;fontColor=default;" parent="WIyWlLk6GJQsqaUBKTNV-1" source="RPdG7LprBocpzkOron-m-77" target="RPdG7LprBocpzkOron-m-87" edge="1"><mxGeometry relative="1" as="geometry"><Array as="points"><mxPoint x="519.94" y="500"/><mxPoint x="519.94" y="700"/><mxPoint x="419.94000000000005" y="700"/></Array></mxGeometry></mxCell><mxCell id="RPdG7LprBocpzkOron-m-77" value="Обработать каждую &lt;br&gt;пару координат" style="shape=hexagon;perimeter=hexagonPerimeter2;whiteSpace=wrap;html=1;fixedSize=1;fontColor=default;" parent="WIyWlLk6GJQsqaUBKTNV-1" vertex="1"><mxGeometry x="339.94000000000005" y="480" width="160" height="40" as="geometry"/></mxCell><mxCell id="RPdG7LprBocpzkOron-m-79" value="Прибавить к &lt;br&gt;длине кабеля" style="rounded=1;whiteSpace=wrap;html=1;fontColor=default;" parent="WIyWlLk6GJQsqaUBKTNV-1" vertex="1"><mxGeometry x="359.94000000000005" y="340" width="120" height="40" as="geometry"/></mxCell><mxCell id="RPdG7LprBocpzkOron-m-84" style="edgeStyle=orthogonalEdgeStyle;rounded=0;orthogonalLoop=1;jettySize=auto;html=1;exitX=0.5;exitY=1;exitDx=0;exitDy=0;entryX=0.5;entryY=0;entryDx=0;entryDy=0;fontColor=default;" parent="WIyWlLk6GJQsqaUBKTNV-1" source="RPdG7LprBocpzkOron-m-81" target="RPdG7LprBocpzkOron-m-83" edge="1"><mxGeometry relative="1" as="geometry"/></mxCell><mxCell id="RPdG7LprBocpzkOron-m-81" value="Рассчитать Манхэттенское расстояние между координатами пары" style="rounded=1;whiteSpace=wrap;html=1;fontColor=default;" parent="WIyWlLk6GJQsqaUBKTNV-1" vertex="1"><mxGeometry x="339.94000000000005" y="540" width="160" height="60" as="geometry"/></mxCell><mxCell id="RPdG7LprBocpzkOron-m-85" style="edgeStyle=orthogonalEdgeStyle;rounded=0;orthogonalLoop=1;jettySize=auto;html=1;exitX=0.5;exitY=1;exitDx=0;exitDy=0;entryX=0;entryY=0.5;entryDx=0;entryDy=0;fontColor=default;" parent="WIyWlLk6GJQsqaUBKTNV-1" source="RPdG7LprBocpzkOron-m-83" target="RPdG7LprBocpzkOron-m-77" edge="1"><mxGeometry relative="1" as="geometry"/></mxCell><mxCell id="RPdG7LprBocpzkOron-m-83" value="Прибавить к &lt;br&gt;длине кабеля" style="rounded=1;whiteSpace=wrap;html=1;fontColor=default;" parent="WIyWlLk6GJQsqaUBKTNV-1" vertex="1"><mxGeometry x="359.94000000000005" y="620" width="120" height="40" as="geometry"/></mxCell><mxCell id="RPdG7LprBocpzkOron-m-87" value="Конец" style="ellipse;whiteSpace=wrap;html=1;fontColor=default;" parent="WIyWlLk6GJQsqaUBKTNV-1" vertex="1"><mxGeometry x="379.94000000000005" y="720" width="80" height="40" as="geometry"/></mxCell></root></mxGraphModel></diagram></mxfile>